<?xml version="1.0" encoding="UTF-8"?>
<svg version="1.1" viewBox="0 0 1600 1272" width="1280" height="800" xmlns="http://www.w3.org/2000/svg">
<path transform="translate(0)" d="m0 0h1600v1272h-1600v-1272z" fill="none"/>
<path transform="translate(854 357)" d="m0 0c1.98 0.00277 1.98 0.00277 3.99 0.00559 0.733-0.00171 1.47-0.00342 2.22-0.00518 2.47-0.00331 4.93 0.00773 7.4 0.0186 1.76 5.64e-4 3.53 2.48e-4 5.29-8.85e-4 4.8-5.76e-4 9.6 0.0112 14.4 0.0251 5.01 0.0125 10 0.0137 15 0.0161 9.49 0.00622 19 0.0226 28.5 0.0427 10.8 0.0223 21.6 0.0333 32.4 0.0434 22.2 0.0209 44.5 0.0561 66.7 0.101 1.19 2.38 1.2 4 1.32 6.65 0.0418 0.973 0.0836 1.95 0.127 2.95 0.0391 1.07 0.0782 2.13 0.118 3.23 0.0423 1.12 0.0845 2.23 0.128 3.38 0.453 13.2 0.409 26.3 0.349 39.5-0.00913 2.78-0.0166 5.56-0.0242 8.34-0.0193 6.7-0.0444 13.4-0.0716 20.1-0.022 5.44-0.0418 10.9-0.0601 16.3-0.00262 0.78-0.00524 1.56-0.00795 2.36-0.00532 1.59-0.0106 3.17-0.0159 4.76-0.0497 14.8-0.106 29.6-0.165 44.3-0.0501 12.7-0.0948 25.3-0.136 38-0.0475 14.8-0.0981 29.5-0.154 44.3-0.00593 1.57-0.0119 3.15-0.0178 4.72-0.00438 1.16-0.00438 1.16-0.00884 2.35-0.0203 5.44-0.0384 10.9-0.0557 16.3-0.0211 6.62-0.0456 13.2-0.0746 19.9-0.0147 3.38-0.0274 6.75-0.0368 10.1-0.0105 3.66-0.027 7.32-0.0451 11-0.00166 1.06-0.00332 2.13-0.00503 3.22-0.084 13.6-0.084 13.6-3.16 18.2-0.362 1.99-0.362 1.99-0.465 4.15-0.442 4.73-1.56 8.93-3.1 13.4-0.262 0.774-0.525 1.55-0.795 2.34-2.84 8.07-6.55 15.6-10.6 23.1-0.499 0.92-0.499 0.92-1.01 1.86-13.4 24.5-13.4 24.5-22 33.1h-3c-0.0619 0.557-0.124 1.11-0.188 1.69-1.14 3.24-3.36 5.02-5.81 7.31-1.27 1.29-2.54 2.58-3.81 3.88-23.2 23.1-23.2 23.1-30.2 23.1-0.33 0.99-0.66 1.98-1 3-1.54 1.07-1.54 1.07-3.62 2.12-3 1.57-5.94 3.2-8.82 4.99-8.29 5.16-16.5 9.21-25.6 12.9-1.46 0.681-2.92 1.37-4.38 2.06-6 2.68-12.3 4.47-18.6 6.34-1.83 0.546-3.66 1.1-5.48 1.66-32.5 9.7-66.2 12.3-100 12.2-2.31-5.66e-4 -4.62-2.43e-4 -6.93 8.85e-4 -6.18 5.66e-4 -12.4-0.0111-18.5-0.0251-6.49-0.0126-13-0.0137-19.5-0.0161-10.9-0.00548-21.7-0.0179-32.6-0.0359-11.2-0.0184-22.3-0.0326-33.5-0.041-1.04-7.88e-4 -1.04-7.88e-4 -2.1-0.00159-3.47-0.00261-6.95-0.00514-10.4-0.00762-28.7-0.0206-57.4-0.0559-86-0.101-0.988-3.11-1.1-3.76 0.244-6.93 0.631-1.12 1.26-2.24 1.91-3.39 0.34-0.61 0.68-1.22 1.03-1.85 1.09-1.95 2.2-3.9 3.31-5.84 0.717-1.28 1.43-2.55 2.15-3.83 3.31-5.9 6.69-11.8 10.1-17.6 2.61-4.45 5.13-8.94 7.55-13.5 0.5-0.929 0.5-0.929 1.01-1.88 1.77-3.33 3.36-6.65 4.68-10.2h2c0.247-0.846 0.495-1.69 0.75-2.56 1.09-2.99 2.4-5.5 3.99-8.24 3.31-5.79 6.41-11.7 9.57-17.6 0.559-1.04 1.12-2.07 1.69-3.14 0.503-0.935 1.01-1.87 1.53-2.83 1.43-2.59 2.95-5.12 4.47-7.66 1.08-2.1 2.14-4.2 3.19-6.31 0.53-1.07 1.06-2.14 1.61-3.24 0.398-0.808 0.797-1.62 1.21-2.45h2c0.268-1.05 0.536-2.1 0.812-3.19 1.08-3.48 2.28-5.76 4.19-8.81 4.49-7.59 8.81-15.2 13-23 3.34-6.1 6.81-12.1 10.4-18.1 1.66-2.92 3.16-5.89 4.65-8.89 0.781-1.44 1.57-2.88 2.38-4.31 0.436-0.779 0.871-1.56 1.32-2.36 0.431-0.768 0.861-1.54 1.3-2.33 0.75-1.35 1.5-2.71 2.25-4.06 1.64-2.96 3.3-5.91 4.96-8.85 0.397-0.702 0.793-1.4 1.2-2.13 0.791-1.4 1.58-2.8 2.38-4.2 1.64-2.91 3.23-5.79 4.67-8.81 1.22-2.34 2.42-4.23 3.98-6.33 2.66-3.63 4.62-7.44 6.56-11.5 0.689-1.41 1.38-2.81 2.07-4.21 0.494-1.01 0.494-1.01 0.997-2.03 5.22-10.5 5.22-10.5 7.93-11.9 2.68-0.0986 5.34-0.136 8.02-0.129 1.25-0.00259 1.25-0.00259 2.52-0.00522 2.78-0.00436 5.56-0.00139 8.35 0.00181 1.96-0.0011 3.91-0.00253 5.87-0.00427 5.23-0.00291 10.5 0.00139 15.7 0.00811 3.22 0.00396 6.44 0.00648 9.67 0.00867 48.2 0.0379 48.2 0.0379 72 0.495 0.947 0.0153 1.89 0.0306 2.87 0.0463 2.57 0.0439 5.13 0.101 7.7 0.165 0.717 0.0116 1.43 0.0231 2.17 0.035 3.58 0.11 5.06 0.333 8.13 2.38-2.2 3.9-4.46 7.75-6.81 11.6-2.46 4.06-4.61 8.23-6.69 12.5-1.91 3.92-3.87 7.68-6.38 11.2-2.93 4.19-5.27 8.6-7.62 13.1-2.8 5.38-5.66 10.7-8.84 15.8-2.28 3.74-4.51 7.51-6.73 11.3-0.441 0.749-0.882 1.5-1.34 2.27-2.46 4.2-4.87 8.41-7.2 12.7-2.03 3.61-4.16 7.17-6.27 10.7-7.9 11.3-7.9 11.3-12.1 23.8 32 1.19 73.2-2.42 99-24 0.837-0.688 1.67-1.38 2.54-2.09 9.94-8.54 18.8-18.7 21.5-31.9 0.103-2.18 0.151-4.36 0.165-6.54 0.00564-0.655 0.0113-1.31 0.0171-1.99 0.0177-2.19 0.0284-4.39 0.0391-6.58 0.0112-1.57 0.0229-3.15 0.0349-4.72 0.0313-4.27 0.0565-8.55 0.0802-12.8 0.0204-3.57 0.044-7.14 0.0675-10.7 0.0556-8.43 0.106-16.9 0.154-25.3 0.049-8.69 0.105-17.4 0.165-26.1 0.0514-7.46 0.0987-14.9 0.143-22.4 0.0262-4.45 0.0539-8.91 0.0854-13.4 0.0294-4.19 0.0536-8.39 0.0739-12.6 0.00827-1.54 0.0183-3.07 0.0303-4.61 0.142-10.7 0.142-10.7-1.06-21.4-1.02-1.24-1.02-1.24-3.16-1.11-0.954 0.00524-1.91 0.0105-2.89 0.0159-1.62 0.00495-1.62 0.00495-3.27 0.01-1.76 0.0124-1.76 0.0124-3.55 0.0251-1.19 0.00379-2.39 0.00757-3.62 0.0115-3.83 0.0123-7.67 0.0309-11.5 0.051-5.04 0.0265-10.1 0.0465-15.1 0.0625-1.76 0.0124-1.76 0.0124-3.55 0.0251-1.62 0.00495-1.62 0.00495-3.27 0.01-0.954 0.00524-1.91 0.0105-2.89 0.0159-2.16-0.114-2.16-0.114-3.16-1.11-0.1-1.58-0.131-3.16-0.134-4.74-0.00426-1.03-0.00853-2.05-0.0129-3.11 4.53e-4 -1.13 9.06e-4 -2.27 0.00137-3.44-0.00504-1.78-0.00504-1.78-0.0102-3.6-0.0079-3.26-0.0112-6.53-0.0118-9.79-9.48e-4 -2.72-0.00462-5.44-0.00817-8.16-0.00815-6.42-0.0106-12.8-0.00987-19.3 6.01e-4 -6.63-0.00995-13.3-0.0257-19.9-0.0131-5.68-0.0184-11.4-0.0178-17.1 2.55e-4 -3.4-0.00262-6.8-0.0132-10.2-0.00974-3.79-0.00694-7.58-8.95e-4 -11.4-0.00562-1.13-0.0112-2.26-0.017-3.43 0.00629-1.54 0.00629-1.54 0.0127-3.11-5.45e-4 -0.897-0.00109-1.79-0.00165-2.72 0.424-3.66 1.77-4.11 5.29-4.39z" fill="#77D03F"/>
<path transform="translate(717 582)" d="m0 0c1.25-0.00259 1.25-0.00259 2.52-0.00522 2.78-0.00436 5.56-0.00139 8.35 0.00181 1.96-0.0011 3.91-0.00253 5.87-0.00427 5.23-0.00291 10.5 0.00139 15.7 0.00811 3.22 0.00396 6.44 0.00648 9.67 0.00867 48.2 0.0379 48.2 0.0379 72 0.495 1.42 0.0229 1.42 0.0229 2.87 0.0463 2.57 0.0439 5.13 0.101 7.7 0.165 0.717 0.0116 1.43 0.0231 2.17 0.035 3.58 0.11 5.06 0.333 8.13 2.38-2.2 3.9-4.46 7.75-6.81 11.6-2.46 4.06-4.61 8.23-6.69 12.5-1.91 3.92-3.87 7.68-6.38 11.2-2.93 4.19-5.27 8.6-7.62 13.1-2.8 5.38-5.66 10.7-8.84 15.8-2.28 3.74-4.51 7.51-6.73 11.3-0.441 0.749-0.882 1.5-1.34 2.27-2.46 4.2-4.87 8.41-7.2 12.7-2.03 3.61-4.16 7.17-6.27 10.7-7.9 11.3-7.9 11.3-12.1 23.8 12.6 0.466 24.7-0.0811 37.2-1.81 1.2-0.165 2.41-0.331 3.65-0.501 6.46-0.952 12.6-2.22 18.9-4.13 3.35-0.829 5.93-0.35 9.27 0.439 1.81 0.358 3.62 0.712 5.44 1.06 1.52 0.311 3.04 0.622 4.56 0.938-0.66 0.66-1.32 1.32-2 2 0.99 0.66 1.98 1.32 3 2-0.33 0.66-0.66 1.32-1 2 0.99 0.33 1.98 0.66 3 1 0.33 1.65 0.66 3.3 1 5h-2v7h-3v2l2 1c-1.65 0.33-3.3 0.66-5 1v7c-0.66-0.99-1.32-1.98-2-3-0.33 2.31-0.66 4.62-1 7 1.65 0.33 3.3 0.66 5 1 0.188 2.38 0.188 2.38 0 5l-3 2c0.33 1.65 0.66 3.3 1 5h-3c-0.33 4.62-0.66 9.24-1 14-0.99 0.33-1.98 0.66-3 1v5h-4c-0.33 0.99-0.66 1.98-1 3l-2 1c0.66 0.66 1.32 1.32 2 2-1.65 0.33-3.3 0.66-5 1l2 1c0.33 0.99 0.66 1.98 1 3 0.99 0.33 1.98 0.66 3 1-0.33 0.33-0.66 0.66-1 1l3 3c-0.464 1.61-0.464 1.61-0.938 3.25-0.351 1.24-0.701 2.48-1.06 3.75-0.325 0.959-0.325 0.959-0.656 1.94-0.445 2.67 0.166 4.29 1.09 6.81 0.431 1.2 0.431 1.2 0.871 2.42 0.342 0.905 0.342 0.905 0.691 1.83-0.99 0.33-1.98 0.66-3 1v2l2 1c-3.13 2.64-6.09 3.84-10 5v4c-1.65 0.33-3.3 0.66-5 1-0.0619 1.64-0.0619 1.64-0.125 3.31-0.875 3.69-0.875 3.69-3.44 5.5-15.3 5.29-31.4 4.33-47.4 4.3-2.31-2.82e-4 -4.61-1.23e-4 -6.92 4.43e-4 -6.23 2.86e-4 -12.5-0.00557-18.7-0.0126-6.52-0.00627-13-0.00684-19.6-0.00803-10.9-0.00275-21.9-0.00899-32.8-0.0179-11.3-0.0092-22.5-0.0163-33.8-0.0205-0.696-2.63e-4 -1.39-5.25e-4 -2.11-7.96e-4 -3.49-0.00131-6.98-0.00257-10.5-0.00381-28.9-0.0103-57.8-0.028-86.7-0.0503-0.988-3.11-1.1-3.76 0.244-6.93 0.631-1.12 1.26-2.24 1.91-3.39 0.34-0.61 0.68-1.22 1.03-1.85 1.09-1.95 2.2-3.9 3.31-5.84 0.717-1.28 1.43-2.55 2.15-3.83 3.31-5.9 6.69-11.8 10.1-17.6 2.61-4.45 5.13-8.94 7.55-13.5 0.333-0.619 0.666-1.24 1.01-1.88 1.77-3.33 3.36-6.65 4.68-10.2h2c0.247-0.846 0.495-1.69 0.75-2.56 1.09-2.99 2.4-5.5 3.99-8.24 3.31-5.79 6.41-11.7 9.57-17.6 0.559-1.04 1.12-2.07 1.69-3.14 0.503-0.935 1.01-1.87 1.53-2.83 1.43-2.59 2.95-5.12 4.47-7.66 1.08-2.1 2.14-4.2 3.19-6.31 0.53-1.07 1.06-2.14 1.61-3.24 0.398-0.808 0.797-1.62 1.21-2.45h2c0.268-1.05 0.536-2.1 0.812-3.19 1.08-3.48 2.28-5.76 4.19-8.81 4.49-7.59 8.81-15.2 13-23 3.34-6.1 6.81-12.1 10.4-18.1 1.66-2.92 3.16-5.89 4.65-8.89 0.781-1.44 1.57-2.88 2.38-4.31 0.654-1.17 0.654-1.17 1.32-2.36 0.431-0.768 0.861-1.54 1.3-2.33 0.75-1.35 1.5-2.71 2.25-4.06 1.64-2.96 3.3-5.91 4.96-8.85 0.397-0.702 0.793-1.4 1.2-2.13 0.791-1.4 1.58-2.8 2.38-4.2 1.64-2.91 3.23-5.79 4.67-8.81 1.22-2.34 2.42-4.23 3.98-6.33 2.66-3.63 4.62-7.44 6.56-11.5 0.689-1.41 1.38-2.81 2.07-4.21 0.329-0.67 0.658-1.34 0.997-2.03 5.97-12 5.97-12 16-12z" fill="#56CE8F"/>
<path transform="translate(741,582)" d="m0 0c57.7-0.194 57.7-0.194 85.1 0.318 2.03 0.0377 4.06 0.0721 6.09 0.103 2.8 0.0445 5.6 0.102 8.41 0.164 0.819 0.0116 1.64 0.0231 2.48 0.035 3.82 0.102 5.7 0.213 8.95 2.38-2.2 3.9-4.46 7.75-6.81 11.6-2.46 4.06-4.61 8.23-6.69 12.5-1.91 3.92-3.87 7.68-6.38 11.2-2.93 4.19-5.27 8.6-7.62 13.1-2.8 5.38-5.66 10.7-8.84 15.8-2.28 3.74-4.51 7.51-6.73 11.3-0.441 0.749-0.882 1.5-1.34 2.27-2.46 4.2-4.87 8.41-7.2 12.7-2.03 3.61-4.16 7.17-6.27 10.7-7.9 11.3-7.9 11.3-12.1 23.8 12.6 0.466 24.7-0.0811 37.2-1.81 1.2-0.165 2.41-0.331 3.65-0.501 6.46-0.952 12.6-2.22 18.9-4.13 3.35-0.829 5.93-0.35 9.27 0.439 1.81 0.358 3.62 0.712 5.44 1.06 1.52 0.311 3.04 0.622 4.56 0.938l-2 2c0.99 0.66 1.98 1.32 3 2-0.33 0.66-0.66 1.32-1 2 0.99 0.33 1.98 0.66 3 1 0.33 1.65 0.66 3.3 1 5h-2v7h-3v2c0.66 0.33 1.32 0.66 2 1-1.65 0.33-3.3 0.66-5 1v7c-0.66-0.99-1.32-1.98-2-3-0.33 2.31-0.66 4.62-1 7 1.65 0.33 3.3 0.66 5 1 0.188 2.38 0.188 2.38 0 5-0.99 0.66-1.98 1.32-3 2 0.33 1.65 0.66 3.3 1 5h-3c-0.33 4.62-0.66 9.24-1 14-0.99 0.33-1.98 0.66-3 1v5h-4c-0.33 0.99-0.66 1.98-1 3-0.66 0.33-1.32 0.66-2 1l2 2c-1.65 0.33-3.3 0.66-5 1 0.66 0.33 1.32 0.66 2 1 0.33 0.99 0.66 1.98 1 3 0.99 0.33 1.98 0.66 3 1l-1 1c0.99 0.99 1.98 1.98 3 3-0.309 1.07-0.619 2.14-0.938 3.25-0.351 1.24-0.701 2.48-1.06 3.75-0.217 0.639-0.433 1.28-0.656 1.94-0.445 2.67 0.166 4.29 1.09 6.81 0.287 0.799 0.575 1.6 0.871 2.42 0.228 0.603 0.456 1.21 0.691 1.83-0.99 0.33-1.98 0.66-3 1v2c0.66 0.33 1.32 0.66 2 1-3.13 2.64-6.09 3.84-10 5v4c-1.65 0.33-3.3 0.66-5 1-0.0412 1.09-0.0825 2.19-0.125 3.31-0.875 3.69-0.875 3.69-3.44 5.5-16.1 5.57-33.3 4.34-50.1 4.32-2.49 6.74e-4 -4.98 0.00165-7.46 0.0029-5.19 0.00147-10.4-6.49e-4 -15.6-0.00534-5.33-0.00459-10.7-0.00482-16 0-6.45 0.00578-12.9 0.00671-19.4 0.00344-2.46-6.68e-4 -4.91 1.55e-4 -7.37 0.00248-3.42 0.00253-6.84-0.00131-10.3-0.0069-1.53 0.00304-1.53 0.00304-3.09 0.00613-1.39-0.00423-1.39-0.00423-2.81-0.00854-0.807-3.77e-4 -1.61-7.54e-4 -2.45-0.00114-1.96-0.126-1.96-0.126-3.96-1.13 0.495-0.99 0.495-0.99 1-2 0.289-0.639 0.577-1.28 0.875-1.94 1.2-2.2 2.11-3.57 4.12-5.06 2.69-0.188 2.69-0.188 5 0-0.99 0.99-1.98 1.98-3 3 0.66 1.32 1.32 2.64 2 4 2.64-0.33 5.28-0.66 8-1v-2-3h-5c2.7-3.8 4.55-5.62 9-7 2.89-0.195 2.89-0.195 5.81-0.125 0.976 0.018 1.95 0.0361 2.96 0.0547 0.736 0.0232 1.47 0.0464 2.23 0.0703v-2c1.7-0.433 1.7-0.433 3.44-0.875 1.18-0.371 2.35-0.743 3.56-1.12 0.33-0.66 0.66-1.32 1-2h12c1.34-0.306 2.68-0.635 4-1-0.99-0.99-0.99-0.99-2-2v-1h-4v-2h-6c0.495-3.96 0.495-3.96 1-8 0.99 1.98 0.99 1.98 2 4 1.32-0.99 2.64-1.98 4-3-0.267-1.98-0.267-1.98-1-4-0.99-0.33-1.98-0.66-3-1v-2h-4v-8c0.99-0.33 1.98-0.66 3-1-0.33-0.99-0.66-1.98-1-3 0.66-0.99 1.32-1.98 2-3 0.99 0.33 1.98 0.66 3 1 0.298-3.78 0.298-3.78-1-6 1.98 0.33 3.96 0.66 6 1 0.33-1.65 0.66-3.3 1-5-3.37 0.547-5.08 1.05-8 3v-2h-2v2h-9c-0.778-3.41-1.1-6.51-1-10 2.31-0.99 4.62-1.98 7-3 0.33 0.33 0.66 0.66 1 1 0.33-0.66 0.66-1.32 1-2 2.18-0.598 2.18-0.598 4.88-1.06 2.84-0.5 5.39-1.02 8.12-1.94 1.22-2.5 1.22-2.5 2-5-0.99-0.33-1.98-0.66-3-1v-5c0.66-0.33 1.32-0.66 2-1 0.197-1.97 0.394-3.95 0.582-5.92 0.617-3.07 2.28-4.87 4.42-7.08-0.577-0.144-1.15-0.289-1.75-0.438-0.742-0.186-1.49-0.371-2.25-0.562-0.99-0.217-0.99-0.217-2-0.438-2.17-0.61-4.02-1.5-6-2.56 0.33 0.99 0.66 1.98 1 3h-3c-0.33 0.66-0.66 1.32-1 2h-2c-0.66 0.33-1.32 0.66-2 1-0.66-0.33-1.32-0.66-2-1 1-2 1-2 3-4v-2c1.98-0.33 3.96-0.66 6-1v-3c0.66-0.33 1.32-0.66 2-1-0.186-0.949-0.371-1.9-0.562-2.88-0.438-3.12-0.438-3.12 0.562-5.12-0.0874-1.88-0.242-3.75-0.438-5.62-0.102-1-0.204-2.01-0.309-3.04-0.0838-0.771-0.168-1.54-0.254-2.34-0.276 0.808-0.552 1.62-0.836 2.45-0.384 0.842-0.768 1.68-1.16 2.55-2.62 0.812-2.62 0.812-5 1-0.121-0.603-0.242-1.21-0.367-1.83-0.168-0.799-0.335-1.6-0.508-2.42-0.162-0.789-0.325-1.58-0.492-2.39-0.624-2.33-1.48-4.25-2.63-6.36h3c0.33-2.31 0.66-4.62 1-7h-2v-2h3c-2.56-3.13-5.21-3.81-9-5-2.01-0.97-4.02-1.96-6-3 1.31-1.5 1.31-1.5 3-3h3v-4c-0.763 0.0412-1.53 0.0825-2.31 0.125-2.69-0.125-2.69-0.125-5.69-2.12-1.49 0.495-1.49 0.495-3 1-0.25-6.62-0.25-6.62 2-10h4c0.495-0.516 0.99-1.03 1.5-1.56 0.495-0.474 0.99-0.949 1.5-1.44 3.64 0.251 6.81 2.33 10 4v4c1.98-0.495 1.98-0.495 4-1 0.33-1.98 0.66-3.96 1-6 0.784-0.0825 1.57-0.165 2.38-0.25 2.77-0.478 2.77-0.478 3.94-2.81 0.227-0.639 0.454-1.28 0.688-1.94-4.43-1.81-4.43-1.81-9-1v9h-1c0.0116-0.748 0.0232-1.5 0.0352-2.27 0.00902-0.985 0.018-1.97 0.0273-2.98 0.0116-0.975 0.0232-1.95 0.0352-2.95-0.136-3.89-0.261-5.99-3.1-8.73-2.3-2.37-2.64-3.83-3-7.06 0.66 0.66 1.32 1.32 2 2 0.33-0.33 0.66-0.66 1-1 1.67-0.0406 3.33-0.0427 5 0v4h8v2c0.99 0.495 0.99 0.495 2 1v2c0.961 1.36 1.96 2.7 3 4 0.908-0.825 1.82-1.65 2.75-2.5 2.79-2.53 3.12-2.5 7.25-2.5 0.66 1.32 1.32 2.64 2 4 0.165-1.28 0.33-2.56 0.5-3.88 0.0928-0.719 0.186-1.44 0.281-2.18 0.256-1.95 0.256-1.95 0.219-3.95h-5c0.667-2 1.33-4 2-6h-3-4c-1.77 1.92-1.77 1.92-3 4 0.33 0.66 0.66 1.32 1 2-3.56-0.61-6.68-1.58-10-3-1.12-7.62-1.12-7.62 0-11-0.99-0.495-0.99-0.495-2-1 2.48-0.495 2.48-0.495 5-1 0.309-0.928 0.619-1.86 0.938-2.81l2.06-6.19c-3.11-1.21-3.11-1.21-7-1-0.778-3.41-1.1-6.51-1-10h2v-3h-5v-4c-0.66-0.33-1.32-0.66-2-1h2c0.33-1.98 0.66-3.96 1-6 0.495 1.49 0.495 1.49 1 3 0.66-1.32 1.32-2.64 2-4-0.66-0.33-1.32-0.66-2-1 0.999 0.0116 2 0.0232 3.03 0.0352 1.29 0.00902 2.58 0.018 3.91 0.0273 1.93 0.0174 1.93 0.0174 3.9 0.0352 3.02 0.268 3.02 0.268 4.16-1.1 4.46-0.495 4.46-0.495 9-1-12.9-0.495-12.9-0.495-26-1 0.33-0.99 0.66-1.98 1-3z" fill="#63CE74"/>
<path transform="translate(860 359)" d="m0 0c0.98 0.0786 1.96 0.157 2.97 0.238 2.53 0.449 2.53 0.449 4.53 2.45-0.639 0.248-1.28 0.495-1.94 0.75-2.25 1.07-2.25 1.07-2.81 3.38-0.0825 0.619-0.165 1.24-0.25 1.88h-8c-0.66-2.64-1.32-5.28-2-8 2.69-1.34 4.52-0.95 7.5-0.688z" fill="#64CF74"/>
<path transform="translate(731,596)" d="m0 0v4c-8.47 2.4-8.47 2.4-12 1-1.25-2.56-1.25-2.56-2-5 0.66-0.33 1.32-0.66 2-1v2h4v-2c4.62-1.25 4.62-1.25 8 1z" fill="#63CE75"/>
<path transform="translate(854,428)" d="m0 0c1.98 0.66 3.96 1.32 6 2 0.33 1.98 0.66 3.96 1 6h-3v7c-0.99-0.33-1.98-0.66-3-1-1.8-4.08-2.3-7.57-2-12 0.33-0.66 0.66-1.32 1-2z" fill="#64CF71"/>
<path transform="translate(758,611)" d="m0 0h5v4c-3.58 1.24-6.34 0.749-10 0v-2h5v-2z" fill="#56CE90"/>
<path transform="translate(852,584)" d="m0 0c-2 2-2 2-4.25 2.14-0.911-0.0524-1.82-0.105-2.76-0.159-0.986-0.0516-1.97-0.103-2.99-0.156-1.55-0.0967-1.55-0.0967-3.13-0.195-1.56-0.0851-1.56-0.0851-3.15-0.172-2.57-0.142-5.15-0.293-7.72-0.453v-1c16.9-1.33 16.9-1.33 24 0z" fill="#77D040"/>
<path transform="translate(744,769)" d="m0 0c0.99 0.33 1.98 0.66 3 1 0.33 0.99 0.66 1.98 1 3-0.99 1.49-0.99 1.49-2 3-1.98-0.66-3.96-1.32-6-2 1.32-1.65 2.64-3.3 4-5z" fill="#57CE8C"/>
<path transform="translate(727,803)" d="m0 0c2.31 0.33 4.62 0.66 7 1v4c-5.75 1.12-5.75 1.12-8 0 0.33-1.65 0.66-3.3 1-5z" fill="#63CE74"/>
</svg>
